<svg viewBox="0 0 12 12" width="60px" height="60px" xmlns="http://www.w3.org/2000/svg"><path fill-rule="evenodd" d="M 0,0 3,0 3,1 8,1 8,0 11,0 11,5 10,5 10,8 11,8 11,11 8,11 8,10 6,10 6,9 5,9 5,10 3,10 3,11 0,11 0,8 1,8 1,5 0,5z M 6,4 6,6 5,6 5,4z" fill="#3FA6DA"/><path fill-rule="evenodd" d="M 1,1 2,1 2,2 1,2z" fill="#ffffff"/><path fill-rule="evenodd" d="M 9,1 10,1 10,2 9,2z" fill="#ffffff"/><path fill-rule="evenodd" d="M 4,2 5,2 5,3 4,3z" fill="#ffffff"/><path fill-rule="evenodd" d="M 6,2 7,2 7,3 6,3z" fill="#ffffff"/><path fill-rule="evenodd" d="M 1,3 2,3 2,4 1,4z" fill="#ffffff"/><path fill-rule="evenodd" d="M 3,3 4,3 4,4 3,4z" fill="#ffffff"/><path fill-rule="evenodd" d="M 7,3 8,3 8,4 7,4z" fill="#ffffff"/><path fill-rule="evenodd" d="M 9,3 10,3 10,4 9,4z" fill="#ffffff"/><path fill-rule="evenodd" d="M 2,4 3,4 3,5 2,5z" fill="#ffffff"/><path fill-rule="evenodd" d="M 8,4 9,4 9,5 8,5z" fill="#ffffff"/><path fill-rule="evenodd" d="M 2,6 4,6 4,7 2,7z" fill="#ffffff"/><path fill-rule="evenodd" d="M 7,6 9,6 9,7 7,7z" fill="#ffffff"/><path fill-rule="evenodd" d="M 5,7 6,7 6,8 5,8z" fill="#ffffff"/><path fill-rule="evenodd" d="M 3,8 4,8 4,9 3,9z" fill="#ffffff"/><path fill-rule="evenodd" d="M 7,8 8,8 8,9 7,9z" fill="#ffffff"/><path fill-rule="evenodd" d="M 1,9 2,9 2,10 1,10z" fill="#ffffff"/><path fill-rule="evenodd" d="M 9,9 10,9 10,10 9,10z" fill="#ffffff"/></svg>